<?xml version="1.0" encoding="UTF-8" standalone="no"?>
<svg
   width="24"
   height="24"
   viewBox="0 0 24 24"
   fill="none"
   version="1.1"
   id="svg20"
   sodipodi:docname="random.svg"
   inkscape:version="1.2.1 (9c6d41e410, 2022-07-14)"
   xmlns:inkscape="http://www.inkscape.org/namespaces/inkscape"
   xmlns:sodipodi="http://sodipodi.sourceforge.net/DTD/sodipodi-0.dtd"
   xmlns="http://www.w3.org/2000/svg"
   xmlns:svg="http://www.w3.org/2000/svg">
  <defs
     id="defs24" />
  <sodipodi:namedview
     id="namedview22"
     pagecolor="#ffffff"
     bordercolor="#666666"
     borderopacity="1.0"
     inkscape:showpageshadow="2"
     inkscape:pageopacity="0.0"
     inkscape:pagecheckerboard="0"
     inkscape:deskcolor="#d1d1d1"
     showgrid="false"
     inkscape:zoom="34.875"
     inkscape:cx="12"
     inkscape:cy="12.014337"
     inkscape:window-width="1920"
     inkscape:window-height="1017"
     inkscape:window-x="-8"
     inkscape:window-y="-8"
     inkscape:window-maximized="1"
     inkscape:current-layer="svg20" />
  <path
     id="path18"
     style="fill:#000000"
     d="M 4 1 C 2.3431517 1 1 2.3431517 1 4 L 1 20 C 1 21.656898 2.3431517 23 4 23 L 20 23 C 21.656898 23 23 21.656898 23 20 L 23 4 C 23 2.3431517 21.656898 1 20 1 L 4 1 z M 4 3 L 20 3 C 20.552299 3 21 3.4477206 21 4 L 21 20 C 21 20.552299 20.552299 21 20 21 L 4 21 C 3.4477206 21 3 20.552299 3 20 L 3 4 C 3 3.4477206 3.4477206 3 4 3 z " />
  <path
     d="M17.2 14.9431C16.0954 14.9431 15.2 15.8385 15.2 16.9431C15.2 18.0477 16.0954 18.9431 17.2 18.9431C18.3045 18.9431 19.2 18.0477 19.2 16.9431C19.2 15.8385 18.3045 14.9431 17.2 14.9431Z"
     fill="currentColor"
     id="path14" />
  <path
     d="M5.05518 7.05518C5.05518 5.95061 5.95061 5.05518 7.05518 5.05518C8.15975 5.05518 9.05518 5.95061 9.05518 7.05518C9.05518 8.15975 8.15975 9.05518 7.05518 9.05518C5.95061 9.05518 5.05518 8.15975 5.05518 7.05518Z"
     fill="currentColor"
     id="path16" />
</svg>
