<?xml version="1.0" encoding="UTF-8" standalone="no"?>
<!-- Generator: Adobe Illustrator 19.0.0, SVG Export Plug-In . SVG Version: 6.00 Build 0)  -->

<svg
   version="1.1"
   id="Layer_1"
   x="0px"
   y="0px"
   viewBox="0 0 473.935 473.935"
   style="enable-background:new 0 0 473.935 473.935;"
   xml:space="preserve"
   sodipodi:docname="faster.svg"
   inkscape:version="1.2 (dc2aedaf03, 2022-05-15)"
   xmlns:inkscape="http://www.inkscape.org/namespaces/inkscape"
   xmlns:sodipodi="http://sodipodi.sourceforge.net/DTD/sodipodi-0.dtd"
   xmlns="http://www.w3.org/2000/svg"
   xmlns:svg="http://www.w3.org/2000/svg"><defs
   id="defs287" /><sodipodi:namedview
   id="namedview285"
   pagecolor="#505050"
   bordercolor="#eeeeee"
   borderopacity="1"
   inkscape:showpageshadow="0"
   inkscape:pageopacity="0"
   inkscape:pagecheckerboard="0"
   inkscape:deskcolor="#505050"
   showgrid="false"
   inkscape:zoom="0.49795858"
   inkscape:cx="236.9675"
   inkscape:cy="236.9675"
   inkscape:window-width="1920"
   inkscape:window-height="1129"
   inkscape:window-x="-8"
   inkscape:window-y="-8"
   inkscape:window-maximized="1"
   inkscape:current-layer="Layer_1" />

<circle
   style="fill:#49a0ae"
   cx="-236.96701"
   cy="-236.96701"
   r="236.967"
   id="circle246"
   transform="scale(-1)" /><g
   id="g252"
   transform="rotate(180,236.967,236.967)">
	<path
   style="fill:#ffffff"
   d="m 282.572,134.832 c -8.105,0 -14.683,3.847 -14.683,11.951 v 180.93 c 0,8.101 6.578,11.951 14.683,11.951 17.085,0 90.892,-86.293 90.892,-101.492 0,-15.206 -83.172,-103.34 -90.892,-103.34 z"
   id="path248" />
	<path
   style="fill:#ffffff"
   d="m 148.785,134.832 c -8.105,0 -14.675,3.847 -14.675,11.951 v 180.93 c 0,8.101 6.571,11.951 14.675,11.951 17.092,0 90.899,-86.293 90.899,-101.492 0,-15.206 -83.176,-103.34 -90.899,-103.34 z"
   id="path250" />
</g>
<g
   id="g254">
</g>
<g
   id="g256">
</g>
<g
   id="g258">
</g>
<g
   id="g260">
</g>
<g
   id="g262">
</g>
<g
   id="g264">
</g>
<g
   id="g266">
</g>
<g
   id="g268">
</g>
<g
   id="g270">
</g>
<g
   id="g272">
</g>
<g
   id="g274">
</g>
<g
   id="g276">
</g>
<g
   id="g278">
</g>
<g
   id="g280">
</g>
<g
   id="g282">
</g>
</svg>
