<?xml version="1.0" encoding="iso-8859-1"?>
<!-- Generator: Adobe Illustrator 19.0.0, SVG Export Plug-In . SVG Version: 6.00 Build 0)  -->
<svg version="1.1" id="Layer_1" xmlns="http://www.w3.org/2000/svg" xmlns:xlink="http://www.w3.org/1999/xlink" x="0px" y="0px"
	 viewBox="0 0 507.973 507.973" style="enable-background:new 0 0 507.973 507.973;" xml:space="preserve">
<path style="fill:#84DBFF;" d="M501.673,289.799l-233-233c-4.1-4.1-9.6-6.3-15.3-6.3h-144.1c-5.7,0-11.2,2.3-15.3,6.3l-36.2,36.2
	c-4.1,4.1-6.3,9.6-6.3,15.3v144.1c0,5.7,2.3,11.2,6.3,15.3l233,233c8.4,8.4,22.1,8.4,30.6,0l180.3-180.3
	C510.073,311.999,510.073,298.299,501.673,289.799z M161.473,160.499c-13.9,13.9-36.4,13.9-50.3,0s-13.9-36.4,0-50.3
	s36.4-13.9,50.3,0S175.373,146.599,161.473,160.499z"/>
<path style="fill:#FFFFFF;" d="M102.073,139.499c-15.9-1.7-32.4-8.5-47-19.3c-0.9-0.6-1.8-1.4-2.6-2.1c0,7.3,0,14.3,0,21l0,0
	c17.6,11.2,37.1,17.5,55.8,17.9c0.4,0,0.8,0,1.2,0C105.273,151.899,102.873,145.699,102.073,139.499z"/>
<path style="fill:#FF7058;" d="M161.773,110.399c-2.3-2.3-4.7-4.2-7.5-5.7c-0.9,1.1-1.6,2.5-1.8,4c-1,5.8-3.2,11.1-6.6,15.6
	c-7.9,10.6-21.4,16.3-38.1,16c-2.1,0-4.3-0.2-6.4-0.4c-15.9-1.7-32.4-8.5-47-19.3c-0.9-0.6-1.8-1.4-2.6-2.1
	c-31.6-24.8-44-62.3-27.5-84.5c16.9-22.8,58-21.2,91.6,3.7c5.3,3.9,10.1,8.3,14.5,12.9c6.9,0,13.4,0,19.8,0c0.1-1.9-0.6-3.9-1.9-5.5
	c-6.4-7.9-13.8-15-22.3-21.2c-41.1-30.5-92.9-30.6-115.5-0.1c-19.8,26.7-10.6,68.2,19.8,98.6c4.2,4.2,8.9,8.2,13.9,12
	c2.5,1.8,5,3.5,7.6,5.1l0,0c17.6,11.2,37.1,17.5,55.8,17.9c0.4,0,0.8,0,1.2,0c21.9,0.1,40-8,51-22.9c3.6-4.8,6.3-10.2,8.1-16.1
	C166.273,115.599,164.173,112.899,161.773,110.399z"/>
<g>
	
		<rect x="198.336" y="222.78" transform="matrix(-0.7071 -0.7071 0.7071 -0.7071 400.8961 635.117)" style="fill:#FFFFFF;" width="267.297" height="23.5"/>
	
		<rect x="150.278" y="268.876" transform="matrix(-0.7071 -0.7071 0.7071 -0.7071 286.2599 679.8247)" style="fill:#FFFFFF;" width="267.297" height="23.5"/>
	
		<rect x="102.688" y="318.36" transform="matrix(-0.7071 -0.7071 0.7071 -0.7071 170.0296 730.6475)" style="fill:#FFFFFF;" width="267.297" height="23.5"/>
</g>
<g>
</g>
<g>
</g>
<g>
</g>
<g>
</g>
<g>
</g>
<g>
</g>
<g>
</g>
<g>
</g>
<g>
</g>
<g>
</g>
<g>
</g>
<g>
</g>
<g>
</g>
<g>
</g>
<g>
</g>
</svg>
