<?xml version='1.0' encoding='utf-8'?>
<!DOCTYPE svg PUBLIC '-//W3C//DTD SVG 1.1//EN' 'http://www.w3.org/Graphics/SVG/1.1/DTD/svg11.dtd'>
<svg version="1.1" xmlns="http://www.w3.org/2000/svg" viewBox="0 0 512 512" xmlns:xlink="http://www.w3.org/1999/xlink" enable-background="new 0 0 512 512">
  <g>
    <g>
      <path d="M193.1,51.8h125.8v63.6h40.8v-84c0-11.3-9.1-20.4-20.4-20.4H172.7c-11.3,0-20.4,9.1-20.4,20.4v84h40.8V51.8L193.1,51.8z"/>
      <path d="m362.2,371c-11.9,6.8-26.6,10.3-44.2,10.3-19.5,0-35-5.4-46.2-16.2-11.3-10.8-16.9-25.7-16.9-44.7 0-19.1 6.2-34.7 18.5-46.7 12.3-12 28.7-18 49.1-18 12.9,0 24.2,1.8 34.1,5.3v25.7c-9.4-5.4-20.8-8.1-34.4-8.1-11.4,0-20.6,3.7-27.8,11.1-7.1,7.4-10.7,17.2-10.7,29.5 0,12.5 3.2,22.1 9.6,29 6.4,6.8 15.1,10.3 26,10.3 6.5,0 11.8-0.9 15.6-2.8v-23.7h-24.3v-21.9h51.7v60.9h-0.1zm-145.9,8.1l-35.4-52.8c-0.7-1-1.8-3.2-3.2-6.7h-0.4v59.5h-27.4v-121.5h27.4v57.5h0.4c0.7-1.6 1.8-3.8 3.4-6.8l33.6-50.7h32.6l-42.4,58 46,63.6h-34.6v-0.1zm284.4,98.2l-52.5-321.1h-384.5l-52.4,321.1c-1,5.9 0.7,12 4.6,16.5 3.9,4.6 9.6,7.2 15.6,7.2h449.2c6,0 11.7-2.6 15.6-7.2 3.7-4.6 5.4-10.6 4.4-16.5z"/>
    </g>
  </g>
</svg>
