<?xml version="1.0" encoding="iso-8859-1"?>
<!-- Generator: Adobe Illustrator 19.0.0, SVG Export Plug-In . SVG Version: 6.00 Build 0)  -->
<svg version="1.1" id="Layer_1" xmlns="http://www.w3.org/2000/svg" xmlns:xlink="http://www.w3.org/1999/xlink" x="0px" y="0px"
	 viewBox="0 0 512 512" style="enable-background:new 0 0 512 512;" xml:space="preserve">
<path style="fill:#25B6D2;" d="M256,0C114.608,0,0,114.608,0,256s114.608,256,256,256s256-114.608,256-256S397.392,0,256,0L256,0z"
	/>
<path style="fill:#FFFFFF;" d="M212.256,44.736c-2.112-2.848-6.256-4.864-10.56-6.048c-6.944-1.904-14.304-1.568-14.144,1.2
	c-6.848,0-9.728,2.672-9.856,6.272c-0.272,7.296,10.928,18.4,24.176,18.832C221.648,65.632,215.792,49.472,212.256,44.736z"/>
<path style="fill:#2E90D3;" d="M56.56,154.208c8.192-15.968,18.224-30.832,29.856-44.304"/>
<path style="fill:#FFFFFF;" d="M387.312,74.688c-0.192-0.144-0.4-0.272-0.592-0.416c-3.008-2.176-6.08-4.272-9.2-6.304
	c-0.48-0.304-0.96-0.608-1.424-0.912c-2.912-1.856-5.888-3.648-8.896-5.376c-0.56-0.32-1.12-0.656-1.68-0.96
	c-3.088-1.744-6.208-3.392-9.376-4.992c-0.448-0.224-0.88-0.464-1.328-0.688c-7.344-3.632-14.912-6.88-22.672-9.696
	c-0.16-0.064-0.336-0.112-0.496-0.16c-3.536-1.28-7.136-2.464-10.752-3.552c-1.072-0.32-2.144-0.608-3.216-0.912
	c-2.752-0.784-5.52-1.536-8.32-2.224c-1.36-0.336-2.72-0.64-4.096-0.944c-2.56-0.576-5.136-1.12-7.744-1.6
	c-1.488-0.272-2.976-0.544-4.48-0.8c-2.56-0.432-5.152-0.8-7.744-1.136c-1.488-0.192-2.976-0.4-4.48-0.576
	c-2.784-0.304-5.6-0.544-8.432-0.736c-1.312-0.096-2.608-0.224-3.92-0.304C264.336,32.144,260.192,32,256,32
	c-4.688,0-9.344,0.192-13.968,0.48c-3.968,1.536-11.12,5.312-7.648,11.6c4.688,8.496,17.424,20.256,4.688,22.208
	c-12.736,1.952-20.112,10.448-31.504,10.448s-40.224-11.76-41.552-3.264c-1.344,8.496-29.488,23.52-36.192,22.864
	c-6.704-0.656-10.048,11.76-28.16,11.76c-4.768,0-10.048,0.736-15.248,1.808c-11.632,13.472-21.664,28.336-29.856,44.304
	c2.752,0.848,5.904,1.104,9.568,0.272c17.44-3.92,40.224-27.44,56.304-15.68s25.472,16.992,24.128,39.2s-5.36,49.648,18.768,61.408
	c24.128,11.76,9.392,23.52,28.16,31.36s44.24,11.76,50.944,16.992s18.768,16.992,18.768,16.992s-17.424,19.6-10.72,30.048
	c6.704,10.448,38.88,15.68,36.192,41.808c-2.688,26.128-22.688,70.752-22.688,79.888s-0.992,22.464-0.992,22.464
	s30.832-11.76,37.536-24.832s34.4-50.08,42.448-54s32.176-19.6,40.224-35.28s37.536-33.968,8.048-41.808
	s-32.176-32.672-54.96-33.968c-22.784-1.312-16.752-5.872-32.176-5.232s-25.472,7.84-32.176,9.152
	c-6.704,1.312-15.424-1.312-16.752-7.84s-8.048-16.336-12.736-14.368c-4.688,1.952,6.704-11.76,0-13.072
	c-6.704-1.312-13.312,9.152-20.4,9.152s-7.76-26.784-7.76-26.784s40.224-4.576,42.224,0c2.016,4.576,12.064,15.024,15.424,9.792
	c3.36-5.232-6.704-18.944-4.688-22.208c2.016-3.264,46.928-32.016,48.256-43.776s25.472-10.448,24.128-24.832
	s-14.752-10.448-16.752-18.288c-2.016-7.84-10.72-16.336-17.424-8.496c-1.472,1.712-3.296,2.624-5.232,3.184
	c2.848-3.152,4.784-6.176,4.56-7.76c-0.672-4.576,19.44-15.68,23.456-20.912s-25.472-22.208-36.864-26.128
	c-6.992-2.4-13.712-2.832-17.872-2.816c-0.48-7.664,0.064-15.168,4.464-18.736c8.048-6.528,15.424,11.104,21.456,11.104
	c6.032,0,27.488,0.656,32.176,7.184s13.408,15.68,13.408,21.552s8.048,45.072,26.816,41.152s19.44-15.68,28.16-18.288
	s17.424,7.184,34.192,3.264c0,0-1.28-2.912-4.416-7.744C418.96,101.184,404,86.816,387.312,74.688z M277.28,95.04
	c-0.032-0.384-0.096-0.864-0.128-1.28c2.448,0.96,4.864,1.744,6.832,1.936c6.704,0.656,9.392,16.336-4.016,26.128
	c-10.064,7.344-5.36,15.584-0.16,20.512c-3.024,4.496-6.448,9.36-11.232,8.896c-6.704-0.656-20.112-7.84-24.128-13.712
	c-4.016-5.872,8.048-22.208,16.08-27.44C268.576,104.832,277.952,104.832,277.28,95.04z"/>
<g>
	<path style="fill:#32BEA6;" d="M317.664,40.704c1.072,0.304,2.144,0.592,3.216,0.912C319.808,41.296,318.736,41.008,317.664,40.704
		z"/>
	<path style="fill:#32BEA6;" d="M280.816,33.408c1.504,0.16,2.992,0.368,4.48,0.576C283.792,33.776,282.304,33.568,280.816,33.408z"
		/>
	<path style="fill:#32BEA6;" d="M305.248,37.52c1.376,0.304,2.736,0.608,4.096,0.944C307.984,38.128,306.608,37.824,305.248,37.52z"
		/>
	<path style="fill:#32BEA6;" d="M376.08,67.056c0.48,0.304,0.96,0.608,1.424,0.912C377.04,67.664,376.56,67.36,376.08,67.056z"/>
	<path style="fill:#32BEA6;" d="M386.72,74.272c0.192,0.144,0.4,0.272,0.592,0.416C387.12,74.544,386.912,74.416,386.72,74.272z"/>
	<path style="fill:#32BEA6;" d="M331.632,45.168c0.16,0.064,0.336,0.112,0.496,0.16C331.968,45.28,331.792,45.232,331.632,45.168z"
		/>
	<path style="fill:#32BEA6;" d="M268.464,32.368c1.312,0.08,2.608,0.208,3.92,0.304C271.072,32.576,269.776,32.432,268.464,32.368z"
		/>
	<path style="fill:#32BEA6;" d="M293.04,35.12c1.504,0.256,2.992,0.528,4.48,0.8C296.016,35.632,294.528,35.376,293.04,35.12z"/>
	<path style="fill:#32BEA6;" d="M354.8,55.04c0.448,0.224,0.88,0.464,1.328,0.688C355.696,55.488,355.248,55.248,354.8,55.04z"/>
	<path style="fill:#32BEA6;" d="M365.52,60.704c0.56,0.32,1.12,0.64,1.68,0.96C366.64,61.344,366.08,61.024,365.52,60.704z"/>
	<path style="fill:#32BEA6;" d="M387.312,74.688c16.688,12.128,31.632,26.496,44.416,42.656l0,0
		C418.944,101.184,404,86.816,387.312,74.688z"/>
	<path style="fill:#32BEA6;" d="M332.128,45.344c7.776,2.816,15.328,6.064,22.672,9.696
		C347.456,51.408,339.888,48.16,332.128,45.344z"/>
	<path style="fill:#32BEA6;" d="M256,32c4.192,0,8.336,0.144,12.464,0.368C264.336,32.144,260.192,32,256,32z"/>
	<path style="fill:#32BEA6;" d="M367.2,61.68c3.008,1.728,5.968,3.52,8.896,5.376C373.168,65.2,370.208,63.408,367.2,61.68z"/>
	<path style="fill:#32BEA6;" d="M377.52,67.968c3.12,2.032,6.192,4.128,9.2,6.304C383.712,72.096,380.64,70,377.52,67.968z"/>
	<path style="fill:#32BEA6;" d="M256,32c-4.688,0-9.344,0.192-13.968,0.48l0,0C246.656,32.192,251.312,32,256,32z"/>
	<path style="fill:#32BEA6;" d="M356.144,55.712c3.168,1.6,6.304,3.248,9.376,4.992C362.432,58.976,359.312,57.312,356.144,55.712z"
		/>
	<path style="fill:#32BEA6;" d="M285.28,33.984c2.592,0.336,5.184,0.704,7.744,1.136C290.464,34.688,287.888,34.32,285.28,33.984z"
		/>
	<path style="fill:#32BEA6;" d="M320.88,41.616c3.616,1.104,7.216,2.272,10.752,3.552C328.096,43.888,324.496,42.72,320.88,41.616z"
		/>
	<path style="fill:#32BEA6;" d="M272.384,32.672c2.816,0.208,5.632,0.432,8.432,0.736C278.016,33.104,275.2,32.864,272.384,32.672z"
		/>
	<path style="fill:#32BEA6;" d="M297.504,35.92c2.592,0.496,5.168,1.024,7.744,1.6C302.688,36.944,300.112,36.4,297.504,35.92z"/>
	<path style="fill:#32BEA6;" d="M309.344,38.464c2.8,0.688,5.568,1.44,8.32,2.224C314.912,39.904,312.144,39.152,309.344,38.464z"/>
</g>
<g>
</g>
<g>
</g>
<g>
</g>
<g>
</g>
<g>
</g>
<g>
</g>
<g>
</g>
<g>
</g>
<g>
</g>
<g>
</g>
<g>
</g>
<g>
</g>
<g>
</g>
<g>
</g>
<g>
</g>
</svg>
